<svg xmlns="http://www.w3.org/2000/svg" fill="none" viewBox="0 0 166 56">
  <path fill="#F6F3EC" d="M57.814 12.395c-3.66-16.53-21.3-15.79-30.48-2.15-4.26-4.63-11.47-7.59-17.18-5.62a.39.39 0 0 0-.14.05c-10.45 3.42-12.14 17.43-7.75 26.9 4.14 10.13 16.31 18.75 26.23 11.88 4.95 3.3 10.83 2.61 16-.51 9.52-5.45 15.8-19.91 13.32-30.55Zm-11.19-10.17c-1 4.94-.1 6.67-2.64 12.49a23 23 0 0 1-4.77 7.32 24.723 24.723 0 0 0-4.24 6 27.77 27.77 0 0 0-6.27-16.24c4.79-7.08 11.95-10.87 17.92-9.57Zm-32.94 39.7a23.3 23.3 0 0 1-9.53-11.15c-3.79-8.16-2.93-20.03 5.5-23.85.71 4.35 0 6 2.32 11.49a21.74 21.74 0 0 0 4.76 7.15 19.57 19.57 0 0 1 4.42 6.59c2.32 5.3 1.4 6.9 2.28 11.44a13.48 13.48 0 0 1-9.75-1.67Zm11.64 1.1c-.77-4.44 0-6.13-2.36-11.64a21.74 21.74 0 0 0-4.81-7.18 19.611 19.611 0 0 1-4.38-6.58c-2.3-5.25-1.41-6.84-2.25-11.31 8.46-1.7 15.92 5 19.32 12.83 3.78 8.16 2.92 20.04-5.52 23.84v.04Zm4.83-.9a14.475 14.475 0 0 0 1.62-1.94 22.52 22.52 0 0 1-.39 2.56 9.434 9.434 0 0 1-1.23-.62Zm23.7-13.29c-3.59 8.37-11.7 16.2-20.61 14.5 1.06-5 .1-6.75 2.68-12.64a23.052 23.052 0 0 1 4.77-7.32 24.828 24.828 0 0 0 5.12-7.86c2.62-6 1.82-7.84 2.72-12.69 9.07 4.18 9.31 17.22 5.32 26.01ZM79.8 6.605h-.2a3.679 3.679 0 0 0-1.195-2.144 5.88 5.88 0 0 0-2.215-1.277c-.836-.274-1.617-.41-2.344-.41-.992 0-1.926.21-2.8.632a6.562 6.562 0 0 0-2.25 1.77c-.634.758-1.126 1.672-1.477 2.742-.352 1.062-.528 2.219-.528 3.469 0 1.21.168 2.336.504 3.375.344 1.031.84 1.93 1.488 2.695a6.606 6.606 0 0 0 2.274 1.723c.86.39 1.812.586 2.86.586.874 0 1.835-.176 2.882-.528 1.047-.36 1.992-.953 2.836-1.781v.668c-1.04.805-1.992 1.395-2.86 1.77-.859.375-1.933.562-3.222.562-1.36 0-2.602-.246-3.727-.738-1.117-.5-2.062-1.172-2.835-2.016a8.761 8.761 0 0 1-1.758-2.848 9.145 9.145 0 0 1-.598-3.257c0-1.68.414-3.239 1.242-4.676A9.239 9.239 0 0 1 69.241 3.5a8.827 8.827 0 0 1 4.605-1.266c1.023 0 2.113.153 3.27.457l1.218.34c.235.047.434.07.598.07.305 0 .508-.042.61-.128.1-.094.179-.258.234-.493h.187L79.8 6.605Zm20.319 4.782a8.855 8.855 0 0 1-1.207 4.511 9.086 9.086 0 0 1-3.27 3.329c-1.382.82-2.913 1.23-4.593 1.23-1.687 0-3.234-.41-4.64-1.23a9.157 9.157 0 0 1-3.329-3.34 9.005 9.005 0 0 1-1.207-4.57 8.93 8.93 0 0 1 .715-3.563 8.955 8.955 0 0 1 2.016-2.918 9.44 9.44 0 0 1 2.953-1.922 9.088 9.088 0 0 1 3.469-.68c1.18 0 2.312.22 3.398.657a8.973 8.973 0 0 1 2.918 1.875 8.855 8.855 0 0 1 2.04 2.918c.491 1.125.737 2.359.737 3.703Zm-2.062.047c0-2.297-.406-4.094-1.219-5.391-.812-1.297-1.75-2.164-2.812-2.602-1.063-.445-2.063-.668-3-.668-.727 0-1.48.122-2.262.364-.781.234-1.543.668-2.285 1.3-.735.633-1.34 1.524-1.817 2.672-.476 1.149-.715 2.567-.715 4.254 0 1.485.196 2.782.586 3.89.399 1.102.942 2.005 1.63 2.708.695.695 1.456 1.2 2.285 1.512a7.54 7.54 0 0 0 2.601.457 7.48 7.48 0 0 0 2.438-.422 6.308 6.308 0 0 0 2.261-1.395c.688-.648 1.242-1.523 1.664-2.625.43-1.11.645-2.46.645-4.054Zm4.16-8.496v-.2h10.359v2.625h-.187a2.546 2.546 0 0 0-.598-1.441c-.343-.43-.937-.645-1.781-.645h-4.148v7.817h3.867c.734 0 1.234-.149 1.5-.446.265-.304.437-.722.515-1.253h.188v3.914h-.188c-.046-.493-.211-.895-.492-1.207-.273-.32-.781-.48-1.523-.48h-3.867v6.292c0 .57.164 1.031.492 1.383.328.344.722.515 1.183.515h.246V20h-5.566v-.188h.234a1.47 1.47 0 0 0 1.161-.527c.312-.351.468-.808.468-1.37V4.858c0-.742-.168-1.246-.504-1.511a1.738 1.738 0 0 0-1.125-.41h-.234Zm12.234 0v-.2h10.36v2.625h-.188a2.552 2.552 0 0 0-.597-1.441c-.344-.43-.938-.645-1.782-.645h-4.148v7.817h3.867c.735 0 1.235-.149 1.5-.446.266-.304.438-.722.516-1.253h.187v3.914h-.187c-.047-.493-.211-.895-.492-1.207-.274-.32-.782-.48-1.524-.48h-3.867v6.292c0 .57.164 1.031.492 1.383.328.344.723.515 1.184.515h.246V20h-5.567v-.188h.235c.469 0 .855-.175 1.16-.527.312-.351.469-.808.469-1.37V4.858c0-.742-.168-1.246-.504-1.511a1.738 1.738 0 0 0-1.125-.41h-.235Zm12.258 0v-.2h10.289v2.719h-.164c0-1.453-.969-2.18-2.906-2.18h-3.598v7.84h3.164c.625 0 1.184-.101 1.676-.305.492-.203.774-.667.844-1.394h.176v3.914h-.176c-.07-.445-.203-.785-.399-1.02-.195-.242-.39-.402-.585-.48a1.336 1.336 0 0 0-.504-.117 5.363 5.363 0 0 0-.879-.07h-3.317v6.128c0 .461.086.86.258 1.196.18.336.59.504 1.231.504h2.566c.617 0 1.125-.09 1.523-.27.399-.18.711-.43.938-.75.234-.32.43-.707.586-1.16h.164L136.998 20h-10.289v-.188h.235c.367 0 .726-.148 1.078-.445.351-.297.527-.781.527-1.453V4.906c0-.531-.121-.992-.363-1.383-.235-.39-.649-.586-1.242-.586h-.235Zm12.235 0v-.2h10.289v2.719h-.164c0-1.453-.969-2.18-2.907-2.18h-3.597v7.84h3.164c.625 0 1.183-.101 1.676-.305.492-.203.773-.667.843-1.394h.176v3.914h-.176c-.07-.445-.203-.785-.398-1.02-.195-.242-.391-.402-.586-.48a1.336 1.336 0 0 0-.504-.117 5.345 5.345 0 0 0-.879-.07h-3.316v6.128c0 .461.086.86.258 1.196.179.336.589.504 1.23.504h2.566c.618 0 1.125-.09 1.524-.27.398-.18.711-.43.937-.75.235-.32.43-.707.586-1.16h.164L149.233 20h-10.289v-.188h.234c.367 0 .727-.148 1.078-.445.352-.297.527-.781.527-1.453V4.906c0-.531-.121-.992-.363-1.383-.234-.39-.648-.586-1.242-.586h-.234ZM77.69 38.636v-5.778c0-.562-.153-1.023-.457-1.382-.305-.36-.778-.54-1.418-.54v-.199h5.496v.2c-.64 0-1.11.18-1.407.539-.296.351-.445.812-.445 1.382v13.055c0 1.266.617 1.898 1.852 1.898V48h-5.496v-.188c.586 0 1.043-.156 1.37-.468.337-.32.505-.79.505-1.407v-6.773H67.8v6.75c0 .602.167 1.07.503 1.406.344.328.8.492 1.371.492V48h-5.496v-.188c.594 0 1.047-.164 1.36-.492.32-.336.48-.804.48-1.406V32.86c0-1.28-.614-1.922-1.84-1.922v-.199h5.496v.2c-.648 0-1.125.18-1.43.539-.296.351-.445.812-.445 1.382v5.778h9.89Zm23.906.75a8.852 8.852 0 0 1-1.207 4.511 9.087 9.087 0 0 1-3.27 3.329c-1.382.82-2.914 1.23-4.593 1.23-1.688 0-3.235-.41-4.641-1.23a9.157 9.157 0 0 1-3.328-3.34 9.005 9.005 0 0 1-1.207-4.57c0-1.266.238-2.454.715-3.563a8.956 8.956 0 0 1 2.015-2.918 9.443 9.443 0 0 1 2.953-1.922 9.087 9.087 0 0 1 3.47-.68 9.01 9.01 0 0 1 3.398.657 8.974 8.974 0 0 1 2.918 1.875 8.868 8.868 0 0 1 2.039 2.918c.492 1.125.738 2.359.738 3.703Zm-2.063.047c0-2.297-.406-4.094-1.218-5.391-.813-1.297-1.75-2.164-2.813-2.602-1.062-.445-2.062-.668-3-.668-.726 0-1.48.122-2.261.364-.782.234-1.543.668-2.286 1.3-.734.633-1.34 1.524-1.816 2.672-.477 1.149-.715 2.567-.715 4.254 0 1.485.195 2.782.586 3.89.398 1.102.941 2.005 1.629 2.708.695.695 1.457 1.2 2.285 1.512a7.54 7.54 0 0 0 2.602.457 7.48 7.48 0 0 0 2.437-.422 6.308 6.308 0 0 0 2.262-1.395c.687-.648 1.242-1.523 1.664-2.625.43-1.11.644-2.46.644-4.054ZM120.78 48h-3.622v-2.86l-.058-.046c-.5 1.164-1.25 2.015-2.25 2.554a6.439 6.439 0 0 1-3.117.809c-1.227 0-2.332-.293-3.317-.879-.976-.586-1.695-1.309-2.156-2.168a5.483 5.483 0 0 1-.621-1.898 16.05 16.05 0 0 1-.129-2.063v-8.59c0-.515-.105-.949-.316-1.3-.204-.352-.696-.559-1.477-.622v-.199h5.426v.2c-.797.093-1.305.324-1.524.69a2.365 2.365 0 0 0-.328 1.231v8.45c0 1.718.176 2.988.528 3.808.375.875.937 1.559 1.687 2.051.75.492 1.602.738 2.555.738.398 0 .871-.07 1.418-.21a4.797 4.797 0 0 0 1.535-.704c1.43-.976 2.144-2.543 2.144-4.699v-9.434c0-.476-.109-.898-.328-1.265-.218-.367-.734-.586-1.547-.657v-.199h5.52v.2c-.797.039-1.309.261-1.535.668-.227.406-.34.816-.34 1.23v13.078c0 .453.074.813.223 1.078.156.258.367.442.632.551.274.11.606.2.997.27V48Zm10.582-13.945h-.188c-.109-.836-.476-1.567-1.101-2.192-.618-.633-1.434-.949-2.45-.949-.664 0-1.254.156-1.769.469a3.195 3.195 0 0 0-1.196 1.277c-.281.54-.421 1.156-.421 1.852 0 .539.082 1.02.246 1.441.172.414.422.781.75 1.102.328.32.715.62 1.16.902.445.273 1.047.621 1.805 1.043 1.265.695 2.25 1.39 2.953 2.086.703.687 1.054 1.633 1.054 2.836a4.33 4.33 0 0 1-.574 2.133c-.375.68-.945 1.238-1.711 1.675-.765.438-1.715.657-2.847.657-.711 0-1.34-.078-1.887-.235a9.482 9.482 0 0 1-1.664-.633c-.235-.078-.395-.117-.481-.117-.164 0-.273.059-.328.176-.047.117-.113.371-.199.762h-.199v-4.324h.199c.281 1.265.828 2.222 1.641 2.87.812.65 1.8.973 2.964.973.875 0 1.575-.164 2.098-.492.531-.328.898-.726 1.102-1.195.203-.469.304-.938.304-1.406 0-.97-.297-1.758-.89-2.368-.586-.617-1.481-1.246-2.684-1.886a39.25 39.25 0 0 1-1.84-1.055 7.691 7.691 0 0 1-1.219-.973 4.574 4.574 0 0 1-.972-1.406c-.242-.547-.363-1.172-.363-1.875 0-.812.214-1.59.644-2.332a4.775 4.775 0 0 1 1.828-1.781c.789-.453 1.684-.68 2.684-.68.758 0 1.535.13 2.332.387.125.062.293.094.504.094.258 0 .433-.176.527-.528h.188v3.692Zm2.378-3.117v-.2h10.29v2.719h-.165c0-1.453-.968-2.18-2.906-2.18h-3.597v7.84h3.164c.625 0 1.183-.101 1.675-.304.493-.204.774-.669.844-1.395h.176v3.914h-.176c-.07-.445-.203-.785-.398-1.02-.196-.242-.391-.402-.586-.48a1.336 1.336 0 0 0-.504-.117 5.345 5.345 0 0 0-.879-.07h-3.316v6.128c0 .461.086.86.257 1.196.18.336.59.504 1.231.504h2.566c.617 0 1.125-.09 1.524-.27.398-.18.711-.43.937-.75.235-.32.43-.707.586-1.16h.164L144.03 48h-10.29v-.188h.235c.367 0 .726-.148 1.078-.445.352-.297.527-.781.527-1.453V32.906c0-.531-.121-.992-.363-1.383-.234-.39-.648-.585-1.242-.585h-.235Z"/>
</svg>
