<svg xmlns="http://www.w3.org/2000/svg" fill="none" viewBox="0 0 44 41">
  <path stroke="#CBBEAD" stroke-linecap="round" stroke-linejoin="round" stroke-width="2" d="M21.46 1C9.83 1 1 8.74 1 18.28a12.83 12.83 0 0 0 5.41 11A15.59 15.59 0 0 1 6 37.4a1.35 1.35 0 0 0 1.74 1.66l10.59-3.75c1.08.16 2.169.243 3.26.25 11.63 0 21-7.74 21-17.28C42.59 8.74 33.09 1 21.46 1Z"/>
  <path stroke="#CBBEAD" stroke-linecap="round" stroke-linejoin="round" stroke-width="2" d="M18.15 35.31a23.69 23.69 0 0 1-6.8-2.44"/>
  <path fill="#CBBEAD" d="M12.84 21.24a2.37 2.37 0 1 0 0-4.74 2.37 2.37 0 0 0 0 4.74Zm9.28 0a2.37 2.37 0 1 0 0-4.74 2.37 2.37 0 0 0 0 4.74Zm9.28 0a2.37 2.37 0 1 0 0-4.74 2.37 2.37 0 0 0 0 4.74Z"/>
</svg>
