<svg width="38" height="39" viewBox="0 0 38 39" fill="none" xmlns="http://www.w3.org/2000/svg">
<path d="M30.048 23.5741C29.2689 22.7629 28.3292 22.3292 27.3333 22.3292C26.3453 22.3292 25.3976 22.7549 24.5864 23.5661L22.0483 26.0961C21.8395 25.9837 21.6307 25.8793 21.4299 25.7748C21.1407 25.6303 20.8676 25.4937 20.6347 25.3492C18.2573 23.8392 16.0967 21.8714 14.0245 19.3253C13.0205 18.0563 12.3459 16.988 11.8559 15.9037C12.5145 15.3013 13.1249 14.6749 13.7193 14.0725C13.9442 13.8476 14.1691 13.6147 14.394 13.3898C16.0807 11.7031 16.0807 9.51842 14.394 7.83173L12.2013 5.63904C11.9523 5.39005 11.6953 5.13304 11.4543 4.87602C10.9724 4.37804 10.4664 3.86401 9.94433 3.3821C9.16525 2.61104 8.23355 2.20142 7.25367 2.20142C6.27378 2.20142 5.32603 2.61104 4.52284 3.3821C4.51481 3.39013 4.51481 3.39013 4.50678 3.39816L1.77596 6.15308C0.747883 7.18115 0.161559 8.43412 0.0330498 9.88788C-0.159714 12.2332 0.531024 14.4178 1.06112 15.8475C2.36228 19.3574 4.30599 22.6103 7.20548 26.0961C10.7234 30.2968 14.9562 33.6139 19.7914 35.9512C21.6387 36.8266 24.1045 37.8628 26.8594 38.0395C27.028 38.0475 27.2047 38.0555 27.3654 38.0555C29.2207 38.0555 30.7789 37.3889 31.9998 36.0636C32.0078 36.0476 32.0238 36.0395 32.0319 36.0235C32.4495 35.5175 32.9314 35.0596 33.4374 34.5697C33.7828 34.2404 34.1362 33.895 34.4816 33.5336C35.2767 32.7063 35.6944 31.7425 35.6944 30.7546C35.6944 29.7586 35.2687 28.8028 34.4575 27.9997L30.048 23.5741ZM32.9234 32.0316C32.9154 32.0316 32.9154 32.0397 32.9234 32.0316C32.6102 32.369 32.2889 32.6742 31.9435 33.0115C31.4215 33.5095 30.8914 34.0316 30.3934 34.6179C29.5822 35.4853 28.6264 35.895 27.3734 35.895C27.2529 35.895 27.1244 35.895 27.0039 35.8869C24.6185 35.7343 22.4017 34.8026 20.7391 34.0075C16.1931 31.8068 12.2013 28.6824 8.88413 24.7227C6.14528 21.4216 4.31402 18.3695 3.10121 15.0925C2.35425 13.0926 2.08117 11.5344 2.20164 10.0646C2.28196 9.12486 2.6434 8.34577 3.31004 7.67913L6.04889 4.94027C6.44245 4.57081 6.86011 4.37001 7.26973 4.37001C7.77574 4.37001 8.18536 4.67522 8.44238 4.93224C8.45041 4.94027 8.45844 4.9483 8.46648 4.95634C8.95642 5.41415 9.42226 5.88803 9.91221 6.39403C10.1612 6.65105 10.4182 6.90807 10.6752 7.17312L12.8679 9.36581C13.7193 10.2172 13.7193 11.0043 12.8679 11.8557C12.635 12.0886 12.4101 12.3215 12.1772 12.5464C11.5025 13.2372 10.86 13.8797 10.1612 14.5062C10.1451 14.5222 10.1291 14.5303 10.121 14.5463C9.4303 15.2371 9.5588 15.9118 9.70338 16.3696C9.71141 16.3937 9.71944 16.4178 9.72747 16.4419C10.2977 17.8233 11.1009 19.1245 12.3218 20.6746L12.3298 20.6827C14.5466 23.4135 16.8838 25.5419 19.4621 27.1724C19.7914 27.3812 20.1287 27.5499 20.45 27.7105C20.7391 27.8551 21.0122 27.9916 21.2451 28.1362C21.2773 28.1523 21.3094 28.1764 21.3415 28.1924C21.6146 28.329 21.8716 28.3932 22.1367 28.3932C22.8033 28.3932 23.221 27.9756 23.3575 27.839L26.1044 25.0921C26.3775 24.8191 26.8112 24.4898 27.3172 24.4898C27.8152 24.4898 28.2248 24.803 28.4738 25.0761C28.4818 25.0841 28.4818 25.0841 28.4898 25.0921L32.9154 29.5177C33.7427 30.3369 33.7427 31.1803 32.9234 32.0316Z" fill="#CBBEAD"/>
<path d="M20.5383 9.05247C22.6426 9.40587 24.5542 10.4018 26.0802 11.9279C27.6063 13.4539 28.5942 15.3655 28.9556 17.4698C29.044 17.9999 29.5018 18.3694 30.0239 18.3694C30.0881 18.3694 30.1443 18.3614 30.2086 18.3533C30.803 18.257 31.1965 17.6947 31.1001 17.1004C30.6664 14.5543 29.4616 12.2331 27.6223 10.3938C25.7831 8.5545 23.4619 7.34972 20.9158 6.91601C20.3214 6.81962 19.7672 7.21318 19.6628 7.79951C19.5584 8.38583 19.9439 8.95609 20.5383 9.05247Z" fill="#CBBEAD"/>
<path d="M37.9835 16.787C37.2687 12.5944 35.2929 8.77926 32.2568 5.74323C29.2208 2.70719 25.4057 0.731364 21.2131 0.0165307C20.6267 -0.0878831 20.0725 0.313709 19.9681 0.900032C19.8717 1.49439 20.2653 2.04858 20.8597 2.153C24.6025 2.78751 28.016 4.56255 30.7308 7.26928C33.4455 9.98404 35.2125 13.3976 35.8471 17.1404C35.9354 17.6705 36.3932 18.04 36.9153 18.04C36.9795 18.04 37.0358 18.0319 37.1 18.0239C37.6863 17.9356 38.0879 17.3733 37.9835 16.787Z" fill="#CBBEAD"/>
</svg>
