<svg xmlns="http://www.w3.org/2000/svg" fill="none" viewBox="0 0 30 36">
  <path fill="#CBBEAD" fill-rule="evenodd" d="M15 .083c-6.205 0-11.25 5.09-11.25 11.369 0 2.126.937 4.765 2.3 7.396 3.002 5.795 8.002 11.632 8.002 11.632a1.248 1.248 0 0 0 1.896 0s5-5.837 8.002-11.632c1.363-2.631 2.3-5.27 2.3-7.396C26.25 5.173 21.205.083 15 .083Zm0 2.5c4.833 0 8.75 3.979 8.75 8.869 0 2.443-1.55 5.626-3.34 8.595-1.92 3.183-4.167 6.106-5.41 7.653-1.243-1.547-3.49-4.47-5.41-7.653-1.79-2.969-3.34-6.152-3.34-8.595 0-4.89 3.917-8.869 8.75-8.869Z" clip-rule="evenodd"/>
  <path fill="#CBBEAD" fill-rule="evenodd" d="M15 6.75a4.585 4.585 0 0 0-4.583 4.583A4.585 4.585 0 0 0 15 15.917a4.585 4.585 0 0 0 4.583-4.584A4.585 4.585 0 0 0 15 6.75Zm0 2.5a2.084 2.084 0 1 1 0 4.168 2.084 2.084 0 0 1 0-4.168Zm7.973 17.712c1.355.406 2.472.91 3.244 1.5.5.38.866.751.866 1.205 0 .266-.151.508-.365.75-.353.398-.878.756-1.528 1.09-2.297 1.175-6.01 1.91-10.19 1.91s-7.893-.735-10.19-1.91c-.65-.334-1.175-.692-1.528-1.09-.214-.242-.365-.484-.365-.75 0-.454.366-.825.866-1.205.772-.59 1.889-1.094 3.244-1.5a1.25 1.25 0 0 0-.72-2.395c-2.064.621-3.667 1.473-4.63 2.415-.847.825-1.26 1.748-1.26 2.685 0 1.17.661 2.336 2.006 3.31 2.36 1.706 7.1 2.94 12.577 2.94s10.217-1.234 12.577-2.94c1.345-.974 2.006-2.14 2.006-3.31 0-.937-.413-1.86-1.26-2.685-.963-.942-2.566-1.794-4.63-2.415a1.25 1.25 0 0 0-.72 2.395Z" clip-rule="evenodd"/>
</svg>
