<svg xmlns="http://www.w3.org/2000/svg">
  <defs>
    <symbol id = "coffee-beans">
      <path d="M47.694 28.896a13.581 13.581 0 0 0-1.57-.836l-.003-.002c-3.506-1.584-7.62-1.646-11.775-.144-4.749 1.717-8.989 5.28-11.938 10.03-2.949 4.752-4.26 10.132-3.692 15.15.573 5.066 2.99 9.159 6.802 11.526a13.918 13.918 0 0 0 7.415 2.07 17.463 17.463 0 0 0 5.933-1.088c4.749-1.717 8.989-5.28 11.938-10.03 2.95-4.752 4.26-10.132 3.693-15.15-.575-5.066-2.99-9.16-6.803-11.526ZM19.786 52.972c-.54-4.778.715-9.913 3.537-14.46 2.822-4.545 6.867-7.95 11.39-9.585a16.369 16.369 0 0 1 5.562-1.02c1.729-.01 3.443.324 5.043.98l-1.309 7.395a11.893 11.893 0 0 1-9.005 9.513l-2.614.612a11.063 11.063 0 0 0-8.539 11.134l.147 4.535c-2.32-2.24-3.79-5.388-4.212-9.104Zm5.322 10.058-.18-5.526a9.985 9.985 0 0 1 7.706-10.047l2.615-.611a12.978 12.978 0 0 0 9.822-10.376l1.258-7.112c.27.141.534.293.795.454l.128.082.334 6.043A12.761 12.761 0 0 1 37.75 49.07l-1.987.464a11.755 11.755 0 0 0-8.76 8.726l-1.245 5.235a13.152 13.152 0 0 1-.65-.464Zm24.78-8.027c-2.823 4.546-6.867 7.95-11.39 9.586-4.21 1.522-8.357 1.334-11.77-.512l1.325-5.568a10.68 10.68 0 0 1 7.957-7.926l1.986-.465a13.838 13.838 0 0 0 10.667-14.24l-.286-5.177c2.803 2.26 4.578 5.698 5.048 9.842.54 4.779-.716 9.913-3.538 14.46Z"/>
      <path d="M19.102 40.983a.54.54 0 0 0 .694-.825c-2.161-1.818-3.893-4.266-5.008-7.082-2.921-7.371-.787-15.209 4.738-17.866l2.708 3.22a7.91 7.91 0 0 1 1.206 8.23l-.61 1.41a10.58 10.58 0 0 0-.441 7.155.54.54 0 0 0 1.035-.303 9.497 9.497 0 0 1 .395-6.425l.61-1.41a8.988 8.988 0 0 0-1.37-9.352l-2.483-2.951a9.18 9.18 0 0 1 .322-.103l3.369 2.332a7.388 7.388 0 0 1 2.577 9.005l-.803 1.858a9.86 9.86 0 0 0-.814 3.932.54.54 0 1 0 1.078 0 8.79 8.79 0 0 1 .725-3.504l.803-1.857a8.471 8.471 0 0 0-2.951-10.32l-2.534-1.753c2.27-.295 4.68.236 6.978 1.567 3.107 1.801 5.63 4.84 7.103 8.559.127.32.246.646.354.97a.539.539 0 0 0 1.023-.343 21.24 21.24 0 0 0-.374-1.023c-1.564-3.943-4.25-7.173-7.566-9.095-3.358-1.946-6.958-2.323-10.14-1.062-6.518 2.583-9.183 11.344-5.94 19.527 1.18 2.98 3.02 5.577 5.316 7.509Zm22.256-16.865a6.99 6.99 0 0 0 2.171.343c3.896 0 7.81-3.161 9.36-7.918.883-2.714.878-5.544-.017-7.968-.88-2.387-2.519-4.105-4.626-4.867-.008-.003-.151-.057-.215-.078-4.52-1.472-9.692 1.927-11.532 7.575-1.734 5.324.105 10.775 4.105 12.616 0 0 .51.218.754.297Zm.08-5.464a6.113 6.113 0 0 0-.303 1.946l.013 1.878-.58-2.071a4.72 4.72 0 0 1 2.404-5.48l1.197-.609a6.748 6.748 0 0 0 3.676-6.461l-.212-3.22h.002l.84 2.757a6.108 6.108 0 0 1-3.072 7.224l-.91.462a6.145 6.145 0 0 0-3.055 3.574Zm-3.915-7.115c1.496-4.593 5.365-7.556 9.014-7.136l.232 3.525a5.672 5.672 0 0 1-3.09 5.43l-1.196.608a5.796 5.796 0 0 0-2.954 6.733l.415 1.48c-2.718-2.048-3.809-6.378-2.42-10.64Zm14.34 4.67c-1.4 4.303-4.885 7.176-8.32 7.176a5.99 5.99 0 0 1-1.312-.145l-.018-2.648a5.07 5.07 0 0 1 2.769-4.552l.909-.46a7.181 7.181 0 0 0 3.615-8.5l-.564-1.851c1.294.785 2.31 2.066 2.92 3.72.81 2.197.811 4.775.002 7.26Z"/>
    </symbol>
      
    <symbol id = "cup-of-coffee">
      <path d="M58.845 34.267a7.358 7.358 0 0 0-5.207-2.164 7.358 7.358 0 0 0-5.207 2.163c-.258.239-.647.705-.996.724-.35.02-.637-.41-.92-.617l.642-9.913h1.983a.954.954 0 0 0 .678-.283.969.969 0 0 0 .28-.682v-5.656a1.487 1.487 0 0 0-.105-.454l-2.558-4.729v-4.69a.97.97 0 0 0-.28-.683.954.954 0 0 0-.678-.283h-6.505C39.828 7 29.3 11.932 29.3 11.932H12.535a.953.953 0 0 0-.853.512l-2.567 4.941A1.271 1.271 0 0 0 9 17.84v5.656a.964.964 0 0 0 .958.965h1.945l2.452 37.642a.969.969 0 0 0 .303.64.955.955 0 0 0 .655.258h28.414a.954.954 0 0 0 .655-.258.968.968 0 0 0 .303-.64l.527-7.962 1.495 1.505a.962.962 0 0 0 .68.286.951.951 0 0 0 .68-.286l10.778-10.887A7.45 7.45 0 0 0 61 39.512a7.45 7.45 0 0 0-2.155-5.245ZM13.11 13.861h16.4c.144 0 10.673-4.932 10.673-4.932h5.336v3.967a.97.97 0 0 0 .105.454l1.916 3.523H11.51l1.6-3.011Zm-2.232 4.942h37.276v3.726H10.878v-3.726ZM42.827 61.05H16.204L13.82 24.46h31.393l-.555 8.6a7.309 7.309 0 0 0-5.03-.657 7.353 7.353 0 0 0-4.257 2.778 7.451 7.451 0 0 0 .569 9.577l7.492 7.548-.604 8.744Zm14.667-17.662L47.377 53.58 37.261 43.388a5.52 5.52 0 0 1 .393-7.326 5.424 5.424 0 0 1 7.271-.396c.648.616 1.62 1.737 2.51 1.737.89 0 1.633-1.12 2.28-1.737a5.425 5.425 0 0 1 7.271.396 5.52 5.52 0 0 1 .393 7.326h.115Z"/>
    </symbol>

    <symbol id = "menu">
      <path d="M55.844 40.373H54.03v1.841h1.813v-1.841Z"/>
      <path d="M14.156 32.173v24.483a4.537 4.537 0 0 0 4.531 4.532h35.344a1.813 1.813 0 0 0 1.813-1.813V44.027H54.03v8.098H21.406v-43.5h31.719a.906.906 0 0 1 .906.906v29.03h1.813V9.53a2.719 2.719 0 0 0-2.719-2.719H18.687a4.537 4.537 0 0 0-4.53 4.532v19.031h1.812v-19.03a2.719 2.719 0 0 1 2.719-2.719h.906v43.5h-.907a4.484 4.484 0 0 0-2.718.93V32.173h-1.813Zm4.531 21.764h35.344v1.813H19.594v1.813H54.03v1.812H18.688a2.718 2.718 0 1 1 0-5.438Z"/>
      <path d="M52.219 23.125a7.258 7.258 0 0 0-7.25-7.25c-.077 0-.155 0-.234.005a7.243 7.243 0 0 0-14.032 0c-.08-.005-.157-.005-.234-.005a7.246 7.246 0 0 0-1.813 14.262v8.394a.907.907 0 0 0 .906.907h16.313a.907.907 0 0 0 .906-.907v-8.394a7.257 7.257 0 0 0 5.438-7.012Zm-21.75 14.5v-1.813h14.5v1.813h-14.5Zm14.5-9.063a5.391 5.391 0 0 1-3.072-.952.907.907 0 0 0-1.027 1.496 7.199 7.199 0 0 0 4.099 1.269V34h-14.5v-3.625a7.197 7.197 0 0 0 4.121-1.287.906.906 0 1 0-1.032-1.49 5.451 5.451 0 1 1-2.261-9.84.908.908 0 0 0 1.037-.778 5.43 5.43 0 0 1 10.77 0 .908.908 0 0 0 1.036.778 5.437 5.437 0 1 1 .829 10.805Zm0 14.501h-14.5v1.812h14.5v-1.813Zm3.625 3.625h-21.75V48.5h21.75v-1.813Z"/>
    </symbol>

  </defs>
</svg>
